<svg xmlns="http://www.w3.org/2000/svg" height="600.0000" stroke-opacity="1" viewBox="0 0 600 600" font-size="1" width="600.0000" xmlns:xlink="http://www.w3.org/1999/xlink" stroke="rgb(0,0,0)" version="1.1"><defs></defs><g stroke-linejoin="miter" stroke-opacity="1.0" fill-opacity="0.0" stroke="rgb(0,0,0)" stroke-width="2.4" fill="rgb(0,0,0)" stroke-linecap="butt" stroke-miterlimit="10.0"><path d="M 368.1818,117.2727 c 0.0000,-37.6558 -30.5260,-68.1818 -68.1818 -68.1818c -37.6558,-0.0000 -68.1818,30.5260 -68.1818 68.1818c -0.0000,37.6558 30.5260,68.1818 68.1818 68.1818c 37.6558,0.0000 68.1818,-30.5260 68.1818 -68.1818Z"/></g><g stroke-linejoin="miter" stroke-opacity="1.0" fill-opacity="0.0" stroke="rgb(0,0,0)" stroke-width="2.4" fill="rgb(0,0,0)" stroke-linecap="butt" stroke-miterlimit="10.0"><path d="M 368.1818,482.7273 c 0.0000,-37.6558 -30.5260,-68.1818 -68.1818 -68.1818c -37.6558,-0.0000 -68.1818,30.5260 -68.1818 68.1818c -0.0000,37.6558 30.5260,68.1818 68.1818 68.1818c 37.6558,0.0000 68.1818,-30.5260 68.1818 -68.1818Z"/></g><g stroke-linejoin="miter" stroke-opacity="1.0" fill-opacity="1.0" stroke="rgb(0,0,0)" stroke-width="2.4" fill="rgb(0,0,0)" stroke-linecap="butt" stroke-miterlimit="10.0"><path d="M 437.3279,436.3636 l -0.9642,0.9642 l 96.4237,96.4237 l 0.9642,-0.9642 Z"/></g><g stroke-linejoin="miter" stroke-opacity="1.0" fill-opacity="1.0" stroke="rgb(0,0,0)" stroke-width="2.4" fill="rgb(0,0,0)" stroke-linecap="butt" stroke-miterlimit="10.0"><path d="M 533.7515,437.3279 l -0.9642,-0.9642 l -96.4237,96.4237 l 0.9642,0.9642 Z"/></g><g stroke-linejoin="miter" stroke-opacity="1.0" fill-opacity="1.0" stroke="rgb(0,0,0)" stroke-width="2.4" fill="rgb(0,0,0)" stroke-linecap="butt" stroke-miterlimit="10.0"><path d="M 67.2127,436.3636 l -0.9642,0.9642 l 96.4237,96.4237 l 0.9642,-0.9642 Z"/></g><g stroke-linejoin="miter" stroke-opacity="1.0" fill-opacity="1.0" stroke="rgb(0,0,0)" stroke-width="2.4" fill="rgb(0,0,0)" stroke-linecap="butt" stroke-miterlimit="10.0"><path d="M 163.6364,437.3279 l -0.9642,-0.9642 l -96.4237,96.4237 l 0.9642,0.9642 Z"/></g><g stroke-linejoin="miter" stroke-opacity="1.0" fill-opacity="1.0" stroke="rgb(0,0,0)" stroke-width="2.4" fill="rgb(0,0,0)" stroke-linecap="butt" stroke-miterlimit="10.0"><path d="M 387.2727,27.2727 l -5.4545,0.0000 l -0.0000,545.4545 l 5.4545,0.0000 Z"/></g><g stroke-linejoin="miter" stroke-opacity="1.0" fill-opacity="1.0" stroke="rgb(0,0,0)" stroke-width="2.4" fill="rgb(0,0,0)" stroke-linecap="butt" stroke-miterlimit="10.0"><path d="M 218.1818,27.2727 l -5.4545,0.0000 l -0.0000,545.4545 l 5.4545,0.0000 Z"/></g><g stroke-linejoin="miter" stroke-opacity="1.0" fill-opacity="1.0" stroke="rgb(0,0,0)" stroke-width="2.4" fill="rgb(0,0,0)" stroke-linecap="butt" stroke-miterlimit="10.0"><path d="M 572.7273,387.2727 l -0.0000,-5.4545 h -545.4545 l -0.0000,5.4545 Z"/></g><g stroke-linejoin="miter" stroke-opacity="1.0" fill-opacity="1.0" stroke="rgb(0,0,0)" stroke-width="2.4" fill="rgb(0,0,0)" stroke-linecap="butt" stroke-miterlimit="10.0"><path d="M 572.7273,218.1818 l -0.0000,-5.4545 h -545.4545 l -0.0000,5.4545 Z"/></g></svg>